<svg width="24" height="24" viewBox="0 0 24 24" fill="none" xmlns="http://www.w3.org/2000/svg">
<path d="M16.6667 15.0833H15.6133L15.24 14.7346C16.5918 13.2156 17.3348 11.2764 17.3333 9.27084C17.3333 7.6103 16.825 5.98705 15.8727 4.60636C14.9204 3.22567 13.5669 2.14956 11.9833 1.5141C10.3996 0.878638 8.65706 0.712372 6.97589 1.03633C5.29472 1.36028 3.75047 2.15991 2.53841 3.33409C1.32636 4.50826 0.500937 6.00426 0.166531 7.63289C-0.167874 9.26152 0.00375513 10.9496 0.659715 12.4838C1.31567 14.0179 2.4265 15.3292 3.85173 16.2517C5.27696 17.1743 6.95257 17.6667 8.66667 17.6667C10.8133 17.6667 12.7867 16.9046 14.3067 15.6388L14.6667 16.0004V17.0208L21.3333 23.4663L23.32 21.5417L16.6667 15.0833ZM8.66667 15.0833C5.34667 15.0833 2.66667 12.4871 2.66667 9.27084C2.66667 6.05459 5.34667 3.45834 8.66667 3.45834C11.9867 3.45834 14.6667 6.05459 14.6667 9.27084C14.6667 12.4871 11.9867 15.0833 8.66667 15.0833Z" fill="#1572C3"/>
</svg>
