<svg width="23" height="23" viewBox="0 0 23 23" fill="none" xmlns="http://www.w3.org/2000/svg">
<path d="M17.2499 13.4167H19.1666V16.2917H22.0416V18.2083H19.1666V21.0833H17.2499V18.2083H14.3749V16.2917H17.2499V13.4167ZM11.4999 2.875C15.7358 2.875 19.1666 4.59042 19.1666 6.70833C19.1666 8.82625 15.7358 10.5417 11.4999 10.5417C7.26408 10.5417 3.83325 8.82625 3.83325 6.70833C3.83325 4.59042 7.26408 2.875 11.4999 2.875ZM3.83325 8.625C3.83325 10.7429 7.26408 12.4583 11.4999 12.4583C15.7358 12.4583 19.1666 10.7429 19.1666 8.625V11.5767L18.2083 11.5C15.7262 11.5 13.6083 13.0717 12.8033 15.2758L11.4999 15.3333C7.26408 15.3333 3.83325 13.6179 3.83325 11.5V8.625ZM3.83325 13.4167C3.83325 15.5346 7.26408 17.25 11.4999 17.25H12.4583C12.4583 18.2563 12.717 19.205 13.177 20.0292L11.4999 20.125C7.26408 20.125 3.83325 18.4096 3.83325 16.2917V13.4167Z" fill="black"/>
</svg>
